<svg xmlns="http://www.w3.org/2000/svg" viewBox="0 0 64 64" role="img" aria-label="GitHub">
  <rect width="64" height="64" rx="14" fill="#111827"/>
  <path d="M32 12c-11 0-20 9-20 20 0 8 5 16 12 19 1 .2 1.4-.4 1.4-1V46c-5 1-6-2-6-2-.8-2-2-3-2-3-1.8-1.2.1-1.2.1-1.2 2 .1 3 2 3 2 1.7 3 4.5 2.2 5.6 1.7.2-1.2.7-2.2 1.3-2.7-4-.4-8.2-2-8.2-9 0-2 .7-3.6 1.8-4.9-.2-.4-.8-2.1.2-4.4 0 0 1.5-.5 4.9 1.8 1.4-.4 2.9-.7 4.4-.7s3 .3 4.4.7c3.4-2.3 4.9-1.8 4.9-1.8 1 2.3.4 4 .2 4.4 1.1 1.3 1.8 2.9 1.8 4.9 0 7-4.2 8.6-8.2 9 .7.6 1.4 1.8 1.4 3.7v5.5c0 .6.4 1.2 1.4 1 7-2.3 12-11 12-19 0-11-9-20-20-20z" fill="#fff"/>
</svg>
